<?xml version="1.0" encoding="iso-8859-1"?>
<!-- Generator: Adobe Illustrator 19.0.0, SVG Export Plug-In . SVG Version: 6.00 Build 0)  -->
<svg version="1.1" id="Layer_1" xmlns="http://www.w3.org/2000/svg" xmlns:xlink="http://www.w3.org/1999/xlink" x="0px" y="0px"
	 viewBox="0 0 511.999 511.999" style="enable-background:new 0 0 511.999 511.999;" xml:space="preserve">
<g>
	<g>
		<path d="M503.35,312.934h-6.8v-38.493c0-16.688-11.033-30.848-26.187-35.569V93.186c0-23.194-18.869-42.064-42.064-42.064H83.696
			c-23.193,0-42.064,18.869-42.064,42.064v55.391c0,4.777,3.872,8.65,8.65,8.65c4.778,0,8.65-3.873,8.65-8.65V93.186
			c0-13.655,11.109-24.764,24.764-24.764h344.602c13.655,0,24.764,11.109,24.764,24.764v144.01H319.88
			c20.497-12.046,37.535-29.917,48.733-52.185c1.229-2.445,1.229-5.327,0-7.772c-21.553-42.859-64.706-69.485-112.617-69.485
			c-47.911,0-91.063,26.625-112.617,69.485c-1.229,2.445-1.229,5.327,0,7.772c4.26,8.472,9.498,16.483,15.566,23.811
			c3.048,3.68,8.501,4.19,12.179,1.145c3.679-3.047,4.192-8.5,1.145-12.179c-4.301-5.195-8.119-10.786-11.382-16.667
			c19.197-34.699,55.244-56.068,95.109-56.068c39.863,0,75.912,21.373,95.11,56.072c-19.198,34.699-55.246,56.072-95.11,56.072
			c-22.031,0-43.24-6.557-61.339-18.962c-3.941-2.702-9.323-1.697-12.026,2.244c-2.701,3.941-1.697,9.323,2.244,12.024
			c2.42,1.658,4.891,3.215,7.402,4.693H58.933v-59.784c0-4.777-3.872-8.65-8.65-8.65c-4.778,0-8.65,3.873-8.65,8.65v61.461
			c-15.152,4.722-26.184,18.881-26.184,35.568v38.493h-6.8c-4.778,0-8.65,3.873-8.65,8.65v75.738c0,4.777,3.872,8.65,8.65,8.65
			h37.051v46.254c0,4.777,3.872,8.65,8.65,8.65h54.902c4.778,0,8.65-3.873,8.65-8.65v-46.254h42.385c4.778,0,8.65-3.873,8.65-8.65
			c0-4.777-3.872-8.65-8.65-8.65H17.3v-58.438h371.294c4.778,0,8.65-3.873,8.65-8.65s-3.872-8.65-8.65-8.65H32.75v-38.493
			c0-10.998,8.947-19.945,19.945-19.945h406.61c10.998,0,19.945,8.947,19.945,19.945v38.493h-62.53c-4.778,0-8.65,3.873-8.65,8.65
			s3.872,8.65,8.65,8.65h77.98v58.438H188.415c-4.778,0-8.65,3.873-8.65,8.65c0,4.777,3.872,8.65,8.65,8.65h205.68v46.254
			c0,4.777,3.872,8.65,8.65,8.65h54.904c4.778,0,8.65-3.873,8.65-8.65v-46.254h37.051c4.778,0,8.65-3.873,8.65-8.65v-75.738
			C512,316.807,508.127,312.934,503.35,312.934z M63.001,405.972h37.603v37.604H63.001V405.972z M448.999,443.576h-37.604v-37.604
			h37.604V443.576z"/>
	</g>
</g>
<g>
</g>
<g>
</g>
<g>
</g>
<g>
</g>
<g>
</g>
<g>
</g>
<g>
</g>
<g>
</g>
<g>
</g>
<g>
</g>
<g>
</g>
<g>
</g>
<g>
</g>
<g>
</g>
<g>
</g>
</svg>
