<?xml version="1.0" encoding="iso-8859-1"?>
<!-- Generator: Adobe Illustrator 16.0.0, SVG Export Plug-In . SVG Version: 6.00 Build 0)  -->
<!DOCTYPE svg PUBLIC "-//W3C//DTD SVG 1.1//EN" "http://www.w3.org/Graphics/SVG/1.1/DTD/svg11.dtd">
<svg version="1.1" id="Capa_1" xmlns="http://www.w3.org/2000/svg" xmlns:xlink="http://www.w3.org/1999/xlink" x="0px" y="0px"
	 width="35.71px" height="35.711px" viewBox="0 0 35.71 35.711" style="enable-background:new 0 0 35.71 35.711;"
	 xml:space="preserve">
<g>
	<path d="M30.154,3.586c-1.586-0.873-3.379-1.334-5.186-1.334c-2.646,0-5.162,0.968-7.111,2.696
		c-1.953-1.729-4.474-2.696-7.119-2.696c-1.801,0-3.593,0.461-5.187,1.336C2.127,5.484,0,9.088,0,12.994
		c0,1.102,0.172,2.193,0.51,3.248c1.773,7.637,15.946,16.607,16.551,16.986c0.244,0.154,0.521,0.23,0.798,0.23
		c0.276,0,0.554-0.078,0.797-0.23c0.605-0.379,14.769-9.352,16.546-16.987c0.336-1.054,0.508-2.146,0.508-3.248
		C35.708,9.088,33.582,5.484,30.154,3.586z M32.328,15.378c-0.016,0.046-0.025,0.093-0.037,0.141
		c-1.115,5.003-10.146,11.833-14.433,14.657C13.569,27.354,4.536,20.527,3.422,15.52c-0.011-0.048-0.023-0.097-0.039-0.143
		C3.129,14.604,3,13.803,3,12.995c0-2.814,1.534-5.414,4-6.779c1.146-0.63,2.438-0.963,3.736-0.963c2.311,0,4.484,1.022,5.968,2.806
		C16.989,8.401,17.412,8.6,17.857,8.6h0.001c0.447,0,0.869-0.199,1.153-0.543c1.477-1.781,3.646-2.804,5.957-2.804
		c1.301,0,2.592,0.333,3.732,0.96c2.471,1.368,4.004,3.967,4.004,6.782C32.708,13.803,32.582,14.605,32.328,15.378z"/>
</g>
<g>
</g>
<g>
</g>
<g>
</g>
<g>
</g>
<g>
</g>
<g>
</g>
<g>
</g>
<g>
</g>
<g>
</g>
<g>
</g>
<g>
</g>
<g>
</g>
<g>
</g>
<g>
</g>
<g>
</g>
</svg>
