<?xml version="1.0" encoding="iso-8859-1"?>
<!-- Generator: Adobe Illustrator 18.0.0, SVG Export Plug-In . SVG Version: 6.00 Build 0)  -->
<!DOCTYPE svg PUBLIC "-//W3C//DTD SVG 1.1//EN" "http://www.w3.org/Graphics/SVG/1.1/DTD/svg11.dtd">
<svg version="1.1" id="Capa_1" xmlns="http://www.w3.org/2000/svg" xmlns:xlink="http://www.w3.org/1999/xlink" x="0px" y="0px"
	 viewBox="0 0 60 60" style="enable-background:new 0 0 60 60;" xml:space="preserve">
<g>
	<path d="M18.35,20.805c0.195,0.195,0.451,0.293,0.707,0.293c0.256,0,0.512-0.098,0.707-0.293c0.391-0.391,0.391-1.023,0-1.414
		c-1.015-1.016-1.015-2.668,0-3.684c0.87-0.87,1.35-2.026,1.35-3.256s-0.479-2.386-1.35-3.256c-0.391-0.391-1.023-0.391-1.414,0
		s-0.391,1.023,0,1.414c0.492,0.492,0.764,1.146,0.764,1.842s-0.271,1.35-0.764,1.842C16.555,16.088,16.555,19.01,18.35,20.805z"/>
	<path d="M40.35,20.805c0.195,0.195,0.451,0.293,0.707,0.293c0.256,0,0.512-0.098,0.707-0.293c0.391-0.391,0.391-1.023,0-1.414
		c-1.015-1.016-1.015-2.668,0-3.684c0.87-0.87,1.35-2.026,1.35-3.256s-0.479-2.386-1.35-3.256c-0.391-0.391-1.023-0.391-1.414,0
		s-0.391,1.023,0,1.414c0.492,0.492,0.764,1.146,0.764,1.842s-0.271,1.35-0.764,1.842C38.555,16.088,38.555,19.01,40.35,20.805z"/>
	<path d="M29.35,14.805c0.195,0.195,0.451,0.293,0.707,0.293c0.256,0,0.512-0.098,0.707-0.293c0.391-0.391,0.391-1.023,0-1.414
		c-1.015-1.016-1.015-2.668,0-3.684c0.87-0.87,1.35-2.026,1.35-3.256s-0.479-2.386-1.35-3.256c-0.391-0.391-1.023-0.391-1.414,0
		s-0.391,1.023,0,1.414c0.492,0.492,0.764,1.146,0.764,1.842s-0.271,1.35-0.764,1.842C27.555,10.088,27.555,13.01,29.35,14.805z"/>
	<path d="M25.345,28.61c0.073,0,0.147-0.008,0.221-0.024c1.438-0.324,2.925-0.488,4.421-0.488c0.004,0,0.008,0,0.013,0h0
		c0.552,0,1-0.447,1-0.999c0-0.553-0.447-1.001-1-1.001c-0.004,0-0.009,0-0.014,0c-1.643,0-3.278,0.181-4.86,0.537
		c-0.539,0.121-0.877,0.656-0.756,1.195C24.476,28.295,24.888,28.61,25.345,28.61z"/>
	<path d="M9.821,45.081c0.061,0.012,0.121,0.017,0.18,0.017c0.474,0,0.895-0.338,0.983-0.82c1.039-5.698,4.473-10.768,9.186-13.56
		c0.475-0.281,0.632-0.895,0.351-1.37c-0.282-0.475-0.895-0.632-1.37-0.351c-5.204,3.083-8.992,8.661-10.134,14.921
		C8.917,44.462,9.277,44.982,9.821,45.081z"/>
	<path d="M55.624,43.721C53.812,33.08,45.517,24.625,34.957,22.577c0.017-0.16,0.043-0.321,0.043-0.48c0-2.757-2.243-5-5-5
		s-5,2.243-5,5c0,0.159,0.025,0.32,0.043,0.48C14.483,24.625,6.188,33.08,4.376,43.721C2.286,44.904,0,46.645,0,48.598
		c0,5.085,15.512,8.5,30,8.5s30-3.415,30-8.5C60,46.645,57.714,44.904,55.624,43.721z M27.006,22.27
		C27.002,22.212,27,22.154,27,22.098c0-1.654,1.346-3,3-3s3,1.346,3,3c0,0.057-0.002,0.114-0.006,0.172
		c-0.047-0.005-0.094-0.007-0.14-0.012c-0.344-0.038-0.69-0.065-1.038-0.089c-0.128-0.009-0.255-0.022-0.383-0.029
		c-0.474-0.026-0.951-0.041-1.432-0.041s-0.958,0.015-1.432,0.041c-0.128,0.007-0.255,0.02-0.383,0.029
		c-0.348,0.024-0.694,0.052-1.038,0.089C27.1,22.263,27.053,22.264,27.006,22.27z M26.399,24.368
		c0.537-0.08,1.077-0.138,1.619-0.182c0.111-0.009,0.222-0.017,0.333-0.025c1.098-0.074,2.201-0.074,3.299,0
		c0.111,0.008,0.222,0.016,0.333,0.025c0.542,0.044,1.082,0.102,1.619,0.182c10.418,1.575,18.657,9.872,20.152,20.316
		c0.046,0.321,0.083,0.643,0.116,0.965c0.011,0.111,0.026,0.221,0.036,0.332c0.039,0.443,0.068,0.886,0.082,1.329
		c-15.71,3.641-32.264,3.641-47.974,0c0.015-0.443,0.043-0.886,0.082-1.329c0.01-0.111,0.024-0.221,0.036-0.332
		c0.033-0.323,0.07-0.645,0.116-0.965C7.742,34.24,15.981,25.942,26.399,24.368z M30,55.098c-17.096,0-28-4.269-28-6.5
		c0-0.383,0.474-1.227,2.064-2.328c-0.004,0.057-0.002,0.113-0.006,0.17C4.024,46.988,4,47.54,4,48.098v0.788l0.767,0.185
		c8.254,1.98,16.744,2.972,25.233,2.972s16.979-0.991,25.233-2.972L56,48.886v-0.788c0-0.558-0.024-1.109-0.058-1.658
		c-0.004-0.057-0.002-0.113-0.006-0.17C57.526,47.371,58,48.215,58,48.598C58,50.829,47.096,55.098,30,55.098z"/>
</g>
<g>
</g>
<g>
</g>
<g>
</g>
<g>
</g>
<g>
</g>
<g>
</g>
<g>
</g>
<g>
</g>
<g>
</g>
<g>
</g>
<g>
</g>
<g>
</g>
<g>
</g>
<g>
</g>
<g>
</g>
</svg>
