<?xml version="1.0" encoding="iso-8859-1"?>
<!-- Generator: Adobe Illustrator 19.0.0, SVG Export Plug-In . SVG Version: 6.00 Build 0)  -->
<svg version="1.1" id="Capa_1" xmlns="http://www.w3.org/2000/svg" xmlns:xlink="http://www.w3.org/1999/xlink" x="0px" y="0px"
	 viewBox="0 0 57 57" style="enable-background:new 0 0 57 57;" xml:space="preserve">
<path d="M57,12.002H41.741C42.556,10.837,43,9.453,43,7.995c0-1.875-0.726-3.633-2.043-4.95c-2.729-2.729-7.17-2.729-9.899,0
	l-2.829,2.829l-2.828-2.829c-2.729-2.729-7.17-2.729-9.899,0c-1.317,1.317-2.043,3.075-2.043,4.95c0,1.458,0.444,2.842,1.259,4.007
	H0v14h5v30h48v-30h4V12.002z M32.472,4.459c1.95-1.949,5.122-1.949,7.071,0C40.482,5.399,41,6.654,41,7.995
	c0,1.34-0.518,2.596-1.457,3.535l-0.472,0.472H24.929l4.714-4.714l0,0L32.472,4.459z M16.916,11.53
	c-0.939-0.939-1.457-2.195-1.457-3.535c0-1.341,0.518-2.596,1.457-3.536c1.95-1.949,5.122-1.949,7.071,0l2.828,2.829l-3.535,3.535
	c-0.207,0.207-0.397,0.441-0.581,0.689c-0.054,0.073-0.107,0.152-0.159,0.229c-0.06,0.088-0.123,0.167-0.18,0.26h-4.972
	L16.916,11.53z M2,24.002v-10h14.559h4.733h2.255H28v10H5H2z M28,26.002v12H7v-12H28z M7,40.002h21v14H7V40.002z M30,54.002v-14h21
	v14H30z M51,38.002H30v-12h21V38.002z M55,24.002h-2H30v-10h9.899H55V24.002z"/>
<g>
</g>
<g>
</g>
<g>
</g>
<g>
</g>
<g>
</g>
<g>
</g>
<g>
</g>
<g>
</g>
<g>
</g>
<g>
</g>
<g>
</g>
<g>
</g>
<g>
</g>
<g>
</g>
<g>
</g>
</svg>
