<?xml version="1.0" encoding="iso-8859-1"?>
<!-- Generator: Adobe Illustrator 19.0.0, SVG Export Plug-In . SVG Version: 6.00 Build 0)  -->
<svg version="1.1" id="Layer_1" xmlns="http://www.w3.org/2000/svg" xmlns:xlink="http://www.w3.org/1999/xlink" x="0px" y="0px"
	 viewBox="0 0 512 512" style="enable-background:new 0 0 512 512;" xml:space="preserve">
<g>
	<g>
		<path d="M502.922,161.753H361.618l-79.582-79.582c2.018-3.967,3.164-8.448,3.164-13.194c0-16.1-13.098-29.2-29.2-29.2
			c-16.1,0-29.199,13.098-29.199,29.2c0,4.746,1.145,9.227,3.164,13.193l-79.572,79.583H9.078c-5.014,0-9.078,4.065-9.078,9.078
			v39.014c0,5.014,4.065,9.078,9.078,9.078s9.078-4.065,9.078-9.078V179.91h475.686v274.155h-70.862
			c-5.015,0-9.078,4.065-9.078,9.078s4.063,9.078,9.078,9.078h79.94c5.015,0,9.078-4.065,9.078-9.078V170.832
			C512,165.818,507.936,161.753,502.922,161.753z M256.001,57.935c6.089,0,11.043,4.953,11.043,11.043
			c0,6.089-4.954,11.042-11.043,11.042s-11.042-4.953-11.042-11.042C244.959,62.888,249.912,57.935,256.001,57.935z
			 M176.069,161.752l66.733-66.742c3.967,2.019,8.45,3.165,13.198,3.165s9.23-1.146,13.196-3.165l66.742,66.742H176.069z"/>
	</g>
</g>
<g>
	<g>
		<path d="M392.72,454.065H18.157V242.529c0-5.014-4.065-9.078-9.078-9.078S0,237.515,0,242.529v220.614
			c0,5.014,4.065,9.078,9.078,9.078H392.72c5.015,0,9.078-4.065,9.078-9.078S397.735,454.065,392.72,454.065z"/>
	</g>
</g>
<g>
	<g>
		<path d="M136.894,267.899c-5.014,0-9.078,4.065-9.078,9.078v30.932h-26.857v-30.932c0-5.014-4.065-9.078-9.078-9.078
			s-9.078,4.065-9.078,9.078v80.021c0,5.014,4.065,9.078,9.078,9.078s9.078-4.065,9.078-9.078v-30.932h26.858v30.932
			c-0.001,5.014,4.064,9.078,9.077,9.078s9.078-4.065,9.078-9.078v-80.021C145.972,271.964,141.907,267.899,136.894,267.899z"/>
	</g>
</g>
<g>
	<g>
		<path d="M191.379,267.899c-17.416,0-31.586,14.168-31.586,31.586v35.007c0,17.416,14.17,31.586,31.586,31.586
			c17.416,0,31.586-14.17,31.586-31.586v-35.007C222.965,282.069,208.795,267.899,191.379,267.899z M204.807,334.491
			c0,7.404-6.024,13.429-13.429,13.429s-13.429-6.024-13.429-13.429v-35.007c0-7.404,6.024-13.429,13.429-13.429
			s13.429,6.023,13.429,13.429V334.491z"/>
	</g>
</g>
<g>
	<g>
		<path d="M280.236,267.899h-45.013c-5.014,0-9.078,4.065-9.078,9.078s4.065,9.078,9.078,9.078h13.428v70.943
			c0,5.014,4.065,9.078,9.078,9.078c5.015,0,9.078-4.065,9.078-9.078v-70.943h13.429c5.015,0,9.078-4.065,9.078-9.078
			S285.251,267.899,280.236,267.899z"/>
	</g>
</g>
<g>
	<g>
		<path d="M356.059,347.92h-35.935v-21.511h21.612c5.015,0,9.078-4.065,9.078-9.078s-4.064-9.078-9.078-9.078h-21.612v-22.196
			h35.935c5.015,0,9.078-4.065,9.078-9.078s-4.064-9.078-9.078-9.078h-45.013c-5.015,0-9.078,4.065-9.078,9.078v80.021
			c0,5.014,4.064,9.078,9.078,9.078h45.013c5.015,0,9.078-4.065,9.078-9.078S361.074,347.92,356.059,347.92z"/>
	</g>
</g>
<g>
	<g>
		<path d="M432.227,347.92h-35.936v-70.943c0-5.014-4.065-9.078-9.078-9.078c-5.015,0-9.078,4.065-9.078,9.078v80.021
			c0,5.014,4.064,9.078,9.078,9.078h45.015c5.015,0,9.078-4.065,9.078-9.078S437.242,347.92,432.227,347.92z"/>
	</g>
</g>
<g>
	<g>
		<path d="M183.799,231.529c-3.259-1.942-7.485-1.635-10.423,0.767c-3.053,2.496-4.139,6.857-2.624,10.496
			c1.394,3.351,4.753,5.604,8.388,5.604c4.216,0,7.909-3.01,8.846-7.094C188.851,237.538,187.112,233.504,183.799,231.529z"/>
	</g>
</g>
<g>
	<g>
		<path d="M260.89,231.671c-3.426-2.169-7.971-1.804-10.989,0.918c-6.061,5.466-1.984,15.81,6.103,15.81
			c4.106-0.002,7.783-2.886,8.796-6.851C265.753,237.819,264.142,233.731,260.89,231.671z"/>
	</g>
</g>
<g>
	<g>
		<path d="M211.808,232.3c-2.799,2.293-3.979,6.183-2.924,9.647c1.15,3.779,4.733,6.448,8.69,6.448c4.292,0,8.04-3.127,8.897-7.311
			C228.139,232.92,218.25,227.022,211.808,232.3z"/>
	</g>
</g>
<g>
	<g>
		<path d="M299.095,231.529c-3.26-1.943-7.484-1.634-10.423,0.767c-3.053,2.495-4.139,6.858-2.624,10.496
			c1.394,3.351,4.755,5.604,8.39,5.604c4.217,0,7.908-3.012,8.846-7.094C304.148,237.539,302.409,233.504,299.095,231.529z"/>
	</g>
</g>
<g>
	<g>
		<path d="M337.528,231.529c-3.639-2.17-8.472-1.49-11.347,1.635c-5.245,5.7-1.046,15.232,6.688,15.232
			c4.383-0.001,8.223-3.279,8.953-7.584C342.437,237.176,340.695,233.419,337.528,231.529z"/>
	</g>
</g>
<g>
	<g>
		<path d="M173.238,387.756c-2.703,2.299-3.83,6.147-2.788,9.541c1.162,3.788,4.727,6.438,8.69,6.438
			c4.618,0,8.565-3.604,9.032-8.189C188.983,387.591,179.319,382.586,173.238,387.756z"/>
	</g>
</g>
<g>
	<g>
		<path d="M250.664,387.317c-3.089,2.225-4.465,6.342-3.348,9.98c1.16,3.781,4.727,6.438,8.69,6.438c4.21,0,7.909-2.996,8.846-7.082
			C266.691,388.632,257.292,382.543,250.664,387.317z"/>
	</g>
</g>
<g>
	<g>
		<path d="M212.232,387.317c-3.157,2.273-4.508,6.503-3.279,10.19c1.227,3.679,4.734,6.228,8.62,6.228
			c4.123,0,7.782-2.88,8.796-6.866C228.424,388.79,218.95,382.48,212.232,387.317z"/>
	</g>
</g>
<g>
	<g>
		<path d="M288.81,387.531c-3.025,2.366-4.226,6.578-2.924,10.187c1.289,3.575,4.747,6.017,8.551,6.017
			c4.377,0,8.168-3.232,8.937-7.522C304.815,388.157,295.198,382.536,288.81,387.531z"/>
	</g>
</g>
<g>
	<g>
		<path d="M327.28,387.506c-3.181,2.455-4.344,6.921-2.801,10.625c1.401,3.36,4.745,5.604,8.39,5.604
			c4.54,0,8.432-3.476,9.005-7.966C342.883,387.862,333.499,382.708,327.28,387.506z"/>
	</g>
</g>
<g>
	<g>
		<path d="M472.661,235.542c-18.995,0-34.449-15.454-34.449-34.449c0-5.014-4.064-9.078-9.078-9.078H197.836
			c-5.014,0-9.078,4.065-9.078,9.078s4.065,9.078,9.078,9.078h223.002c3.798,21.747,20.997,38.945,42.744,42.744v128.146
			c-21.747,3.798-38.945,20.997-42.744,42.744H91.162c-3.798-21.748-20.997-38.947-42.744-42.745V252.914
			c21.747-3.798,38.945-20.997,42.744-42.744h76.413c5.014,0,9.078-4.065,9.078-9.078s-4.065-9.077-9.08-9.077H82.867
			c-5.014,0-9.078,4.065-9.078,9.078c0,18.995-15.454,34.449-34.449,34.449c-5.014,0-9.078,4.065-9.078,9.078v144.735
			c0,5.014,4.065,9.078,9.078,9.078c18.995,0,34.449,15.454,34.449,34.449c0,5.014,4.065,9.078,9.078,9.078h346.267
			c5.015,0,9.078-4.065,9.078-9.078c0-18.995,15.454-34.449,34.449-34.449c5.015,0,9.078-4.065,9.078-9.078V244.62
			C481.74,239.607,477.676,235.542,472.661,235.542z"/>
	</g>
</g>
<g>
</g>
<g>
</g>
<g>
</g>
<g>
</g>
<g>
</g>
<g>
</g>
<g>
</g>
<g>
</g>
<g>
</g>
<g>
</g>
<g>
</g>
<g>
</g>
<g>
</g>
<g>
</g>
<g>
</g>
</svg>
