<?xml version="1.0" encoding="iso-8859-1"?>
<!-- Generator: Adobe Illustrator 16.0.0, SVG Export Plug-In . SVG Version: 6.00 Build 0)  -->
<!DOCTYPE svg PUBLIC "-//W3C//DTD SVG 1.1//EN" "http://www.w3.org/Graphics/SVG/1.1/DTD/svg11.dtd">
<svg version="1.1" id="Capa_1" xmlns="http://www.w3.org/2000/svg" xmlns:xlink="http://www.w3.org/1999/xlink" x="0px" y="0px"
	 width="446.002px" height="446.002px" viewBox="0 0 446.002 446.002" style="enable-background:new 0 0 446.002 446.002;"
	 xml:space="preserve">
<g>
	<g>
		<path d="M7.5,280.941c16.011,0,23.544,4.195,32.268,9.053c9.215,5.131,19.659,10.947,39.564,10.947
			c19.904,0,30.349-5.816,39.563-10.947c8.722-4.856,16.255-9.053,32.265-9.053c16.011,0,23.544,4.195,32.268,9.053
			c9.215,5.131,19.659,10.947,39.564,10.947c19.906,0,30.352-5.816,39.566-10.947c8.724-4.856,16.258-9.053,32.269-9.053
			c16.013,0,23.547,4.195,32.271,9.053c9.216,5.131,19.66,10.947,39.566,10.947c19.907,0,30.352-5.816,39.567-10.947
			c8.724-4.856,16.259-9.053,32.271-9.053c4.144,0,7.5-3.357,7.5-7.5s-3.356-7.5-7.5-7.5c-19.907,0-30.352,5.816-39.567,10.947
			c-8.724,4.857-16.259,9.053-32.271,9.053c-7.43,0-13.022-0.911-17.769-2.363c0.002-0.047,0.008-0.091,0.008-0.137V96.108
			c0-14.796,12.038-26.833,26.834-26.833c10.293,0,19.807,6.007,24.237,15.304c1.783,3.74,6.261,5.326,9.998,3.543
			c3.738-1.782,5.325-6.258,3.543-9.997c-6.905-14.488-21.734-23.85-37.778-23.85c-23.067,0-41.834,18.766-41.834,41.833v47.07
			h-84.091v-47.07c0-14.796,12.037-26.833,26.835-26.833c10.286-0.001,19.8,6.003,24.233,15.295
			c1.783,3.738,6.262,5.321,9.998,3.539c3.738-1.784,5.323-6.261,3.539-9.999c-6.909-14.48-21.736-23.836-37.772-23.835
			c-23.066,0-41.833,18.766-41.833,41.833c0,0,0.043,188.874,0,188.882c-3.414,0.6-7.252,0.951-11.82,0.951
			c-16.011,0-23.544-4.195-32.268-9.053c-9.215-5.131-19.659-10.947-39.564-10.947c-19.904,0-30.349,5.816-39.563,10.947
			c-8.722,4.857-16.255,9.053-32.265,9.053c-16.011,0-23.544-4.195-32.268-9.053c-9.215-5.131-19.659-10.947-39.564-10.947
			c-4.143,0-7.5,3.357-7.5,7.5S3.357,280.941,7.5,280.941z M333.903,158.179v54.593h-84.091v-54.593H333.903z M249.812,227.772
			h84.092v48.845c-9.1-5.062-19.521-10.675-39.076-10.675c-19.905,0-30.352,5.815-39.564,10.947
			c-1.839,1.022-3.627,2.014-5.449,2.944v-52.062H249.812z"/>
		<path d="M438.502,356.728c-19.907,0-30.352,5.815-39.567,10.946c-8.724,4.857-16.259,9.053-32.271,9.053
			s-23.546-4.193-32.271-9.053c-9.216-5.131-19.659-10.946-39.566-10.946c-19.905,0-30.351,5.815-39.565,10.946
			c-8.724,4.857-16.258,9.053-32.27,9.053c-16.011,0-23.544-4.193-32.268-9.053c-9.215-5.131-19.659-10.946-39.564-10.946
			c-19.904,0-30.349,5.815-39.563,10.946c-8.722,4.857-16.255,9.053-32.265,9.053c-16.011,0-23.544-4.193-32.268-9.053
			c-9.215-5.131-19.659-10.946-39.564-10.946c-4.143,0-7.5,3.356-7.5,7.499c0,4.145,3.357,7.5,7.5,7.5
			c16.011,0,23.544,4.195,32.268,9.055c9.215,5.131,19.659,10.945,39.564,10.945c19.904,0,30.349-5.814,39.563-10.945
			c8.722-4.857,16.255-9.055,32.265-9.055c16.011,0,23.544,4.195,32.268,9.055c9.215,5.131,19.659,10.945,39.564,10.945
			c19.906,0,30.352-5.814,39.566-10.945c8.724-4.857,16.258-9.055,32.269-9.055c16.013,0,23.547,4.195,32.271,9.055
			c9.216,5.131,19.66,10.945,39.566,10.945c19.907,0,30.352-5.814,39.567-10.945c8.724-4.857,16.259-9.055,32.271-9.055
			c4.144,0,7.5-3.355,7.5-7.5C446.002,360.084,442.645,356.728,438.502,356.728z"/>
	</g>
</g>
<g>
</g>
<g>
</g>
<g>
</g>
<g>
</g>
<g>
</g>
<g>
</g>
<g>
</g>
<g>
</g>
<g>
</g>
<g>
</g>
<g>
</g>
<g>
</g>
<g>
</g>
<g>
</g>
<g>
</g>
</svg>
