<?xml version="1.0" encoding="iso-8859-1"?>
<!-- Generator: Adobe Illustrator 19.0.0, SVG Export Plug-In . SVG Version: 6.00 Build 0)  -->
<svg version="1.1" id="Layer_1" xmlns="http://www.w3.org/2000/svg" xmlns:xlink="http://www.w3.org/1999/xlink" x="0px" y="0px"
	 viewBox="0 0 512 512" style="enable-background:new 0 0 512 512;" xml:space="preserve">
<g>
	<g>
		<path d="M442.434,52.012L275.781,2.863c-12.938-3.817-26.621-3.817-39.563,0L69.567,52.011
			c-12.304,3.628-20.897,15.12-20.897,27.948v138.014c0,63.872,19.013,125.375,54.984,177.86
			c35.118,51.243,83.991,90.665,141.33,114c3.552,1.445,7.284,2.168,11.016,2.168s7.464-0.724,11.015-2.168
			c57.339-23.335,106.212-62.755,141.33-114c35.97-52.486,54.983-113.988,54.983-177.86V79.96
			C463.33,67.132,454.737,55.639,442.434,52.012z M440.02,217.972c0,59.147-17.602,116.093-50.901,164.681
			c-32.53,47.466-77.79,83.978-130.889,105.587c-1.438,0.585-3.021,0.585-4.459,0c-53.099-21.609-98.36-58.12-130.889-105.587
			C89.583,334.065,71.981,277.12,71.981,217.972V79.959c0-2.565,1.719-4.863,4.18-5.589l166.652-49.149
			c4.314-1.273,8.751-1.908,13.188-1.908c4.436,0,8.873,0.636,13.187,1.909L435.842,74.37c2.459,0.725,4.178,3.023,4.178,5.589
			V217.972z"/>
	</g>
</g>
<g>
	<g>
		<path d="M385.15,103.555l-124.206-36.63c-3.234-0.953-6.652-0.955-9.888,0l-124.203,36.63c-7.382,2.178-12.539,9.074-12.539,16.77
			v97.647c0,51.598,15.608,101.088,45.134,143.122c22.892,32.593,53.481,59.502,88.458,77.82c2.534,1.328,5.314,1.991,8.095,1.991
			c2.78,0,5.56-0.663,8.095-1.991c34.976-18.317,65.565-45.228,88.458-77.82c29.526-42.033,45.134-91.524,45.134-143.122v-97.647
			C397.687,112.627,392.531,105.732,385.15,103.555z M374.378,217.972c0,46.777-14.142,91.635-40.897,129.723
			c-20.172,28.717-46.912,52.562-77.48,69.12c-30.568-16.559-57.309-40.403-77.48-69.12
			c-26.755-38.088-40.897-82.946-40.897-129.723v-93.29L256.001,89.77l118.377,34.912V217.972z"/>
	</g>
</g>
<g>
</g>
<g>
</g>
<g>
</g>
<g>
</g>
<g>
</g>
<g>
</g>
<g>
</g>
<g>
</g>
<g>
</g>
<g>
</g>
<g>
</g>
<g>
</g>
<g>
</g>
<g>
</g>
<g>
</g>
</svg>
