<?xml version="1.0" encoding="iso-8859-1"?>
<!-- Generator: Adobe Illustrator 19.0.0, SVG Export Plug-In . SVG Version: 6.00 Build 0)  -->
<svg version="1.1" id="Layer_1" xmlns="http://www.w3.org/2000/svg" xmlns:xlink="http://www.w3.org/1999/xlink" x="0px" y="0px"
	 viewBox="0 0 512 512" style="enable-background:new 0 0 512 512;" xml:space="preserve">
<g>
	<g>
		<path d="M337.548,356.601v-37.292c0-27.912-22.708-50.618-50.618-50.618H50.618C22.708,268.689,0,291.397,0,319.309v37.292
			c0,4.947,4.01,8.958,8.958,8.958h14.744c-3.715,5.895-5.874,12.863-5.874,20.331c0,7.468,2.16,14.436,5.874,20.331H8.958
			c-4.949,0-8.958,4.011-8.958,8.958v37.292c0,27.912,22.708,50.618,50.618,50.618h157.813c4.949,0,8.958-4.011,8.958-8.958
			c0-4.947-4.01-8.958-8.958-8.958H50.618c-18.033,0.001-32.702-14.669-32.702-32.702v-28.334h301.715v28.334
			c0,18.033-14.669,32.702-32.702,32.702h-48.637c-4.949,0-8.958,4.011-8.958,8.958c0,4.947,4.01,8.958,8.958,8.958h48.637
			c27.911,0,50.618-22.708,50.618-50.618v-37.292c0-4.947-4.01-8.958-8.958-8.958h-14.743c3.716-5.895,5.874-12.863,5.874-20.331
			c0-7.468-2.16-14.436-5.874-20.331h14.743C333.538,365.559,337.548,361.548,337.548,356.601z M319.631,347.643H114.653
			c-4.949,0-8.958,4.011-8.958,8.958c0,4.947,4.01,8.958,8.958,8.958h166.819c11.211,0,20.331,9.121,20.331,20.331
			c0,11.21-9.121,20.331-20.331,20.331H56.075c-11.21,0-20.331-9.121-20.331-20.331c0-11.21,9.121-20.331,20.331-20.331h30.523
			c4.949,0,8.958-4.011,8.958-8.958c0-4.947-4.01-8.958-8.958-8.958H17.917v-28.334c0-18.033,14.669-32.702,32.702-32.702H286.93
			c18.033,0,32.702,14.67,32.702,32.702V347.643z"/>
	</g>
</g>
<g>
	<g>
		<path d="M470.439,235.352c-4.939-0.387-9.244,3.3-9.631,8.232l-18.897,241.59H341.514c-4.949,0-8.958,4.011-8.958,8.958
			c0,4.947,4.01,8.958,8.958,8.958h108.682c4.676,0,8.567-3.598,8.932-8.26l19.545-249.849
			C479.057,240.049,475.372,235.738,470.439,235.352z"/>
	</g>
</g>
<g>
	<g>
		<path d="M511.701,117.452l-16.174-61.125c-1.039-3.93-4.595-6.667-8.66-6.667h-17.299l-4.095-32.898
			c-0.558-4.485-4.369-7.852-8.889-7.852H303.988c-4.949,0-8.958,4.011-8.958,8.958c0,4.947,4.01,8.958,8.958,8.958h144.685
			l2.842,22.833h-215.3l2.842-22.833h35.07c4.949,0,8.958-4.011,8.958-8.958c0-4.947-4.01-8.958-8.958-8.958h-42.984
			c-4.52,0-8.332,3.367-8.889,7.852l-4.093,32.898h-17.302c-4.065,0-7.621,2.738-8.66,6.667l-16.174,61.125
			c-0.712,2.688-0.135,5.553,1.561,7.757c1.696,2.203,4.319,3.494,7.099,3.494h15.273l9.127,116.669
			c0.368,4.695,4.292,8.261,8.923,8.261c0.233,0,0.471-0.01,0.708-0.027c4.933-0.386,8.618-4.698,8.233-9.63l-9.018-115.272h251.868
			l-6.466,82.643c-0.385,4.932,3.3,9.244,8.233,9.63c4.949,0.388,9.245-3.3,9.631-8.232l6.574-84.04h15.272
			c2.779,0,5.403-1.291,7.099-3.494C511.838,123.005,512.413,120.139,511.701,117.452z M196.322,110.784l11.432-43.208h272.216
			l11.432,43.208H196.322z"/>
	</g>
</g>
<g>
</g>
<g>
</g>
<g>
</g>
<g>
</g>
<g>
</g>
<g>
</g>
<g>
</g>
<g>
</g>
<g>
</g>
<g>
</g>
<g>
</g>
<g>
</g>
<g>
</g>
<g>
</g>
<g>
</g>
</svg>
